<svg width="1440" height="111" viewBox="0 0 1440 111" fill="none" xmlns="http://www.w3.org/2000/svg">
<path fill-rule="evenodd" clip-rule="evenodd" d="M0 48.748L5 52.7829C10 57.1059 20 65.4638 29 67.4812C39 69.4987 49 65.4638 59 50.7654C69 36.3552 78 11.2815 88 5.22926C98 -1.11122 108 11.2815 118 27.9973C127 44.7132 137 65.4638 147 59.1233C157 52.7829 167 19.6394 176 17.622C186 15.6046 196 44.7132 206 44.7132C216 44.7132 225 15.6046 235 5.22926C245 -5.14608 255 3.21183 264 5.22926C274 7.24668 284 3.21183 294 0.906201C304 -1.11122 313 -1.11122 323 15.6046C333 32.0322 343 65.4638 353 77.8566C362 90.2493 372 81.8914 382 65.4638C392 48.748 402 23.9625 411 21.6569C421 19.6394 431 40.3901 441 40.3901C451 40.3901 460 19.6394 470 21.6569C480 23.9625 490 48.748 500 55.0885C509 61.1408 519 48.748 529 40.3901C539 32.0322 549 27.9973 558 38.3727C568 48.748 578 73.5335 588 75.8392C598 77.8566 607 57.1059 617 57.1059C627 57.1059 637 77.8566 647 86.2145C656 94.2842 666 90.2493 676 81.8914C686 73.5335 696 61.1408 705 57.1059C715 52.7829 725 57.1059 735 65.4638C744 73.5335 754 86.2145 764 86.2145C774 86.2145 784 73.5335 793 67.4812C803 61.1408 813 61.1408 823 55.0885C833 48.748 842 36.3552 852 40.3901C862 44.7132 872 65.4638 882 69.4987C891 73.5335 901 61.1408 911 52.7829C921 44.7132 931 40.3901 940 32.0322C950 23.9625 960 11.2815 970 17.622C980 23.9625 989 48.748 999 50.7654C1009 52.7829 1019 32.0322 1029 34.3378C1038 36.3553 1048 61.1408 1058 71.5161C1068 81.8914 1078 77.8566 1087 61.1408C1097 44.7132 1107 15.6046 1117 17.622C1127 19.6394 1136 52.7829 1146 57.1059C1156 61.1408 1166 36.3553 1176 21.6569C1185 7.24668 1195 3.21183 1205 11.2815C1215 19.6394 1224 40.3901 1234 52.7829C1244 65.4638 1254 69.4987 1264 61.1408C1273 52.7829 1283 32.0322 1293 25.9799C1303 19.6394 1313 27.9973 1322 42.4075C1332 57.1059 1342 77.8566 1352 77.8566C1362 77.8566 1371 57.1059 1381 55.0885C1391 52.7829 1401 69.4987 1411 69.4987C1420 69.4987 1430 52.7829 1435 44.7132L1440 36.3553V111H1435C1430 111 1420 111 1411 111C1401 111 1391 111 1381 111C1371 111 1362 111 1352 111C1342 111 1332 111 1322 111C1313 111 1303 111 1293 111C1283 111 1273 111 1264 111C1254 111 1244 111 1234 111C1224 111 1215 111 1205 111C1195 111 1185 111 1176 111C1166 111 1156 111 1146 111C1136 111 1127 111 1117 111C1107 111 1097 111 1087 111C1078 111 1068 111 1058 111C1048 111 1038 111 1029 111C1019 111 1009 111 999 111C989 111 980 111 970 111C960 111 950 111 940 111C931 111 921 111 911 111C901 111 891 111 882 111C872 111 862 111 852 111C842 111 833 111 823 111C813 111 803 111 793 111C784 111 774 111 764 111C754 111 744 111 735 111C725 111 715 111 705 111C696 111 686 111 676 111C666 111 656 111 647 111C637 111 627 111 617 111C607 111 598 111 588 111C578 111 568 111 558 111C549 111 539 111 529 111C519 111 509 111 500 111C490 111 480 111 470 111C460 111 451 111 441 111C431 111 421 111 411 111C402 111 392 111 382 111C372 111 362 111 353 111C343 111 333 111 323 111C313 111 304 111 294 111C284 111 274 111 264 111C255 111 245 111 235 111C225 111 216 111 206 111C196 111 186 111 176 111C167 111 157 111 147 111C137 111 127 111 118 111C108 111 98 111 88 111C78 111 69 111 59 111C49 111 39 111 29 111C20 111 10 111 5 111H0V48.748Z" fill="#B4C98A"/>
</svg>
