<svg width="1440" height="465" viewBox="0 0 1440 465" fill="none" xmlns="http://www.w3.org/2000/svg">
<path fill-rule="evenodd" clip-rule="evenodd" d="M0 63.8811L22 123.006C44 180.971 87 298.06 131 298.06C175 298.06 218 180.971 262 180.971C305 180.971 349 298.06 393 347.91C436 397.76 480 381.53 524 314.291C567 248.21 611 131.121 655 139.236C698 147.351 742 281.83 785 281.83C829 281.83 873 147.351 916 73.1555C960 -2.19918 1004 -19.5887 1047 22.1462C1091 63.8811 1135 164.74 1178 214.591C1222 264.441 1265 264.441 1309 264.441C1353 264.441 1396 264.441 1418 264.441H1440V465H1418C1396 465 1353 465 1309 465C1265 465 1222 465 1178 465C1135 465 1091 465 1047 465C1004 465 960 465 916 465C873 465 829 465 785 465C742 465 698 465 655 465C611 465 567 465 524 465C480 465 436 465 393 465C349 465 305 465 262 465C218 465 175 465 131 465C87 465 44 465 22 465H0V63.8811Z" fill="#D7B294"/>
</svg>
